<svg width="77" height="24" viewBox="0 0 77 24" fill="none" xmlns="http://www.w3.org/2000/svg">
<path d="M11.9993 0.5H73C74.933 0.5 76.5 2.067 76.5 4V20C76.5 21.933 74.933 23.5 73 23.5H11.9993C10.9692 23.5 9.99131 23.0462 9.32629 22.2594L2.56439 14.2594C1.4618 12.9549 1.4618 11.0451 2.56439 9.74063L9.32629 1.74063C9.99131 0.953848 10.9692 0.5 11.9993 0.5Z" fill="#FFFBD7" stroke="black"/>
<path d="M20.8524 16.1193C20.2899 16.1193 19.7885 16.0227 19.3481 15.8295C18.9106 15.6364 18.5626 15.3679 18.3041 15.0242C18.0484 14.6776 17.9092 14.2756 17.8865 13.8182H18.9603C18.9831 14.0994 19.0797 14.3423 19.2501 14.5469C19.4206 14.7486 19.6436 14.9048 19.9191 15.0156C20.1947 15.1264 20.5001 15.1818 20.8353 15.1818C21.2103 15.1818 21.5427 15.1165 21.8325 14.9858C22.1223 14.8551 22.3495 14.6733 22.5143 14.4403C22.6791 14.2074 22.7615 13.9375 22.7615 13.6307C22.7615 13.3097 22.6819 13.027 22.5228 12.7827C22.3637 12.5355 22.1308 12.3423 21.824 12.2031C21.5172 12.0639 21.1422 11.9943 20.699 11.9943H20.0001V11.0568H20.699C21.0456 11.0568 21.3495 10.9943 21.6109 10.8693C21.8751 10.7443 22.0811 10.5682 22.2288 10.3409C22.3794 10.1136 22.4547 9.84659 22.4547 9.53978C22.4547 9.24432 22.3893 8.98722 22.2586 8.76847C22.128 8.54972 21.9433 8.37926 21.7047 8.25711C21.4689 8.13495 21.1905 8.07387 20.8694 8.07387C20.5683 8.07387 20.2842 8.12926 20.0172 8.24006C19.753 8.34801 19.537 8.50568 19.3694 8.71307C19.2018 8.91762 19.1109 9.16478 19.0967 9.45455H18.074C18.091 8.99716 18.2288 8.59659 18.4873 8.25284C18.7458 7.90625 19.0839 7.63637 19.5015 7.44318C19.922 7.25 20.3836 7.15341 20.8865 7.15341C21.4262 7.15341 21.8893 7.26279 22.2757 7.48154C22.662 7.69745 22.9589 7.98296 23.1663 8.33807C23.3737 8.69318 23.4774 9.07671 23.4774 9.48864C23.4774 9.98012 23.3481 10.3992 23.0896 10.7457C22.8339 11.0923 22.4859 11.3324 22.0456 11.4659V11.5341C22.5967 11.625 23.0271 11.8594 23.3368 12.2372C23.6464 12.6122 23.8012 13.0767 23.8012 13.6307C23.8012 14.1051 23.672 14.5313 23.4135 14.9091C23.1578 15.2841 22.8083 15.5795 22.3652 15.7955C21.922 16.0114 21.4177 16.1193 20.8524 16.1193Z" fill="black"/>
<path d="M28.3907 16H25.6976V7.27273H28.5101C29.3566 7.27273 30.0811 7.44745 30.6833 7.79688C31.2856 8.14347 31.7473 8.64205 32.0683 9.29262C32.3893 9.94034 32.5498 10.7159 32.5498 11.6193C32.5498 12.5284 32.3879 13.3111 32.064 13.9673C31.7402 14.6207 31.2686 15.1236 30.6493 15.4759C30.0299 15.8253 29.2771 16 28.3907 16ZM26.7544 15.0625H28.3226C29.0441 15.0625 29.6422 14.9233 30.1166 14.6449C30.591 14.3665 30.9447 13.9702 31.1777 13.456C31.4106 12.9418 31.5271 12.3295 31.5271 11.6193C31.5271 10.9148 31.412 10.3082 31.1819 9.79972C30.9518 9.28836 30.6081 8.89631 30.1507 8.62358C29.6933 8.34801 29.1237 8.21023 28.4419 8.21023H26.7544V15.0625Z" fill="black"/>
<path d="M37.5612 16V9.45455H38.5328V10.4773H38.618C38.7544 10.1278 38.9745 9.85654 39.2785 9.66336C39.5825 9.46733 39.9476 9.36932 40.3737 9.36932C40.8055 9.36932 41.1649 9.46733 41.4518 9.66336C41.7416 9.85654 41.9674 10.1278 42.1294 10.4773H42.1976C42.3652 10.1392 42.6166 9.87074 42.9518 9.67188C43.287 9.47017 43.689 9.36932 44.1578 9.36932C44.743 9.36932 45.2217 9.55256 45.5939 9.91904C45.966 10.2827 46.1521 10.8494 46.1521 11.6193V16H45.1464V11.6193C45.1464 11.1364 45.0143 10.7912 44.7501 10.5838C44.4859 10.3764 44.1748 10.2727 43.8169 10.2727C43.3566 10.2727 43.0001 10.4119 42.7473 10.6903C42.4944 10.9659 42.368 11.3153 42.368 11.7386V16H41.3453V11.517C41.3453 11.1449 41.2245 10.8452 40.9831 10.6179C40.7416 10.3878 40.4305 10.2727 40.0498 10.2727C39.7885 10.2727 39.5441 10.3423 39.3169 10.4815C39.0924 10.6207 38.9106 10.8139 38.7714 11.0611C38.6351 11.3054 38.5669 11.5881 38.5669 11.9091V16H37.5612Z" fill="black"/>
<path d="M50.65 16.1364C50.0591 16.1364 49.5406 15.9957 49.0946 15.7145C48.6514 15.4332 48.3048 15.0398 48.0548 14.5341C47.8076 14.0284 47.6841 13.4375 47.6841 12.7614C47.6841 12.0795 47.8076 11.4844 48.0548 10.9759C48.3048 10.4673 48.6514 10.0724 49.0946 9.7912C49.5406 9.50995 50.0591 9.36932 50.65 9.36932C51.2409 9.36932 51.7579 9.50995 52.2011 9.7912C52.6471 10.0724 52.9937 10.4673 53.2409 10.9759C53.4909 11.4844 53.6159 12.0795 53.6159 12.7614C53.6159 13.4375 53.4909 14.0284 53.2409 14.5341C52.9937 15.0398 52.6471 15.4332 52.2011 15.7145C51.7579 15.9957 51.2409 16.1364 50.65 16.1364ZM50.65 15.233C51.0988 15.233 51.4682 15.1179 51.7579 14.8878C52.0477 14.6577 52.2622 14.3551 52.4014 13.9801C52.5406 13.6051 52.6102 13.1989 52.6102 12.7614C52.6102 12.3239 52.5406 11.9162 52.4014 11.5384C52.2622 11.1605 52.0477 10.8551 51.7579 10.6222C51.4682 10.3892 51.0988 10.2727 50.65 10.2727C50.2011 10.2727 49.8318 10.3892 49.542 10.6222C49.2522 10.8551 49.0378 11.1605 48.8985 11.5384C48.7593 11.9162 48.6897 12.3239 48.6897 12.7614C48.6897 13.1989 48.7593 13.6051 48.8985 13.9801C49.0378 14.3551 49.2522 14.6577 49.542 14.8878C49.8318 15.1179 50.2011 15.233 50.65 15.233Z" fill="black"/>
<path d="M57.6226 16.1364C57.0772 16.1364 56.5956 15.9986 56.178 15.723C55.7604 15.4446 55.4337 15.0526 55.1979 14.5469C54.9621 14.0384 54.8442 13.4375 54.8442 12.7443C54.8442 12.0568 54.9621 11.4602 55.1979 10.9545C55.4337 10.4489 55.7618 10.0582 56.1823 9.78267C56.6027 9.50711 57.0885 9.36932 57.6397 9.36932C58.0658 9.36932 58.4025 9.44034 58.6496 9.58239C58.8996 9.72159 59.09 9.88068 59.2206 10.0597C59.3542 10.2358 59.4579 10.3807 59.5317 10.4943H59.6169V7.27273H60.6226V16H59.651V14.9943H59.5317C59.4579 15.1136 59.3527 15.2642 59.2164 15.446C59.08 15.625 58.8854 15.7855 58.6326 15.9276C58.3797 16.0668 58.0431 16.1364 57.6226 16.1364ZM57.759 15.233C58.1624 15.233 58.5033 15.1278 58.7817 14.9176C59.0601 14.7045 59.2718 14.4105 59.4167 14.0355C59.5615 13.6577 59.634 13.2216 59.634 12.7273C59.634 12.2386 59.563 11.8111 59.4209 11.4446C59.2789 11.0753 59.0686 10.7884 58.7902 10.5838C58.5118 10.3764 58.1681 10.2727 57.759 10.2727C57.3329 10.2727 56.9777 10.3821 56.6936 10.6009C56.4124 10.8168 56.2007 11.1108 56.0587 11.483C55.9195 11.8523 55.8499 12.267 55.8499 12.7273C55.8499 13.1932 55.9209 13.6165 56.063 13.9972C56.2079 14.375 56.4209 14.6761 56.7022 14.9006C56.9863 15.1222 57.3385 15.233 57.759 15.233Z" fill="black"/>
<path d="M65.3485 16.1364C64.7178 16.1364 64.1738 15.9972 63.7164 15.7188C63.2618 15.4375 62.911 15.0455 62.6638 14.5426C62.4195 14.0369 62.2973 13.4489 62.2973 12.7784C62.2973 12.108 62.4195 11.517 62.6638 11.0057C62.911 10.4915 63.2547 10.0909 63.6951 9.80398C64.1383 9.51421 64.6553 9.36932 65.2462 9.36932C65.5871 9.36932 65.9238 9.42614 66.2561 9.53978C66.5885 9.65341 66.8911 9.83807 67.1638 10.0938C67.4365 10.3466 67.6539 10.6818 67.8158 11.0994C67.9777 11.517 68.0587 12.0313 68.0587 12.642V13.0682H63.0132V12.1989H67.036C67.036 11.8295 66.9621 11.5 66.8144 11.2102C66.6695 10.9205 66.4621 10.6918 66.1922 10.5242C65.9252 10.3565 65.6098 10.2727 65.2462 10.2727C64.8456 10.2727 64.499 10.3722 64.2064 10.571C63.9167 10.767 63.6936 11.0227 63.5374 11.3381C63.3811 11.6534 63.303 11.9915 63.303 12.3523V12.9318C63.303 13.4261 63.3882 13.8452 63.5587 14.1889C63.732 14.5298 63.9721 14.7898 64.2789 14.9688C64.5857 15.1449 64.9422 15.233 65.3485 15.233C65.6127 15.233 65.8513 15.196 66.0644 15.1222C66.2803 15.0455 66.4664 14.9318 66.6226 14.7813C66.7789 14.6278 66.8996 14.4375 66.9848 14.2102L67.9564 14.483C67.8542 14.8125 67.6823 15.1023 67.4408 15.3523C67.1993 15.5994 66.901 15.7926 66.5459 15.9318C66.1908 16.0682 65.7917 16.1364 65.3485 16.1364Z" fill="black"/>
<path d="M70.5942 7.27273V16H69.5885V7.27273H70.5942Z" fill="black"/>
<circle cx="11" cy="12" r="3" fill="#F0E04B"/>
</svg>
