<svg width="73" height="24" viewBox="0 0 73 24" fill="none" xmlns="http://www.w3.org/2000/svg">
<path d="M11.9994 0.5H69C70.933 0.5 72.5 2.067 72.5 4V20C72.5 21.933 70.933 23.5 69 23.5H11.9993C10.9692 23.5 9.99131 23.0462 9.32629 22.2594L2.56439 14.2594C1.4618 12.9549 1.4618 11.0451 2.56439 9.74063L9.32629 1.74063C9.99131 0.953848 10.9692 0.5 11.9994 0.5Z" fill="#FFD1F8" stroke="black"/>
<path d="M18.4148 16H17.3069L20.5114 7.27274H21.6023L24.8069 16H23.6989L21.091 8.65342H21.0228L18.4148 16ZM18.8239 12.5909H23.2898V13.5284H18.8239V12.5909Z" fill="black"/>
<path d="M26.0299 18.4546V9.45456H27.0015V10.4943H27.1208C27.1947 10.3807 27.2969 10.2358 27.4276 10.0597C27.5611 9.88069 27.7515 9.7216 27.9986 9.5824C28.2486 9.44035 28.5867 9.36933 29.0129 9.36933C29.564 9.36933 30.0498 9.50711 30.4702 9.78268C30.8907 10.0583 31.2188 10.4489 31.4546 10.9546C31.6904 11.4602 31.8083 12.0568 31.8083 12.7443C31.8083 13.4375 31.6904 14.0384 31.4546 14.5469C31.2188 15.0526 30.8921 15.4446 30.4745 15.723C30.0569 15.9986 29.5754 16.1364 29.0299 16.1364C28.6094 16.1364 28.2728 16.0668 28.02 15.9276C27.7671 15.7855 27.5725 15.625 27.4361 15.446C27.2998 15.2642 27.1947 15.1136 27.1208 14.9943H27.0356V18.4546H26.0299ZM27.0185 12.7273C27.0185 13.2216 27.091 13.6577 27.2359 14.0355C27.3807 14.4105 27.5924 14.7046 27.8708 14.9176C28.1492 15.1279 28.4901 15.233 28.8935 15.233C29.314 15.233 29.6648 15.1222 29.9461 14.9006C30.2302 14.6761 30.4432 14.375 30.5853 13.9972C30.7302 13.6165 30.8026 13.1932 30.8026 12.7273C30.8026 12.2671 30.7316 11.8523 30.5896 11.483C30.4504 11.1108 30.2387 10.8168 29.9546 10.6009C29.6734 10.3821 29.3197 10.2727 28.8935 10.2727C28.4844 10.2727 28.1407 10.3764 27.8623 10.5838C27.5839 10.7884 27.3736 11.0753 27.2316 11.4446C27.0896 11.8111 27.0185 12.2386 27.0185 12.7273Z" fill="black"/>
<path d="M33.3424 18.4546V9.45456H34.314V10.4943H34.4333C34.5072 10.3807 34.6094 10.2358 34.7401 10.0597C34.8736 9.88069 35.064 9.7216 35.3111 9.5824C35.5611 9.44035 35.8992 9.36933 36.3253 9.36933C36.8765 9.36933 37.3623 9.50711 37.7827 9.78268C38.2032 10.0583 38.5313 10.4489 38.7671 10.9546C39.0029 11.4602 39.1208 12.0568 39.1208 12.7443C39.1208 13.4375 39.0029 14.0384 38.7671 14.5469C38.5313 15.0526 38.2046 15.4446 37.787 15.723C37.3694 15.9986 36.8879 16.1364 36.3424 16.1364C35.9219 16.1364 35.5853 16.0668 35.3325 15.9276C35.0796 15.7855 34.885 15.625 34.7486 15.446C34.6123 15.2642 34.5072 15.1136 34.4333 14.9943H34.3481V18.4546H33.3424ZM34.331 12.7273C34.331 13.2216 34.4035 13.6577 34.5484 14.0355C34.6932 14.4105 34.9049 14.7046 35.1833 14.9176C35.4617 15.1279 35.8026 15.233 36.206 15.233C36.6265 15.233 36.9773 15.1222 37.2586 14.9006C37.5427 14.6761 37.7557 14.375 37.8978 13.9972C38.0427 13.6165 38.1151 13.1932 38.1151 12.7273C38.1151 12.2671 38.0441 11.8523 37.9021 11.483C37.7629 11.1108 37.5512 10.8168 37.2671 10.6009C36.9859 10.3821 36.6322 10.2727 36.206 10.2727C35.7969 10.2727 35.4532 10.3764 35.1748 10.5838C34.8964 10.7884 34.6861 11.0753 34.5441 11.4446C34.4021 11.8111 34.331 12.2386 34.331 12.7273Z" fill="black"/>
<path d="M43.7401 6.86365L40.9276 17.3125H40.0072L42.8197 6.86365H43.7401Z" fill="black"/>
<path d="M46.6538 16L44.2675 7.27274H45.3413L47.1652 14.3807H47.2504L49.1084 7.27274H50.3016L52.1595 14.3807H52.2447L54.0686 7.27274H55.1425L52.7561 16H51.6652L49.7391 9.04547H49.6709L47.7447 16H46.6538Z" fill="black"/>
<path d="M58.4578 16.1364C57.8271 16.1364 57.2831 15.9972 56.8257 15.7188C56.3712 15.4375 56.0203 15.0455 55.7731 14.5426C55.5288 14.0369 55.4067 13.4489 55.4067 12.7784C55.4067 12.108 55.5288 11.5171 55.7731 11.0057C56.0203 10.4915 56.3641 10.0909 56.8044 9.80399C57.2476 9.51422 57.7646 9.36933 58.3555 9.36933C58.6964 9.36933 59.0331 9.42615 59.3655 9.53978C59.6979 9.65342 60.0004 9.83808 60.2731 10.0938C60.5459 10.3466 60.7632 10.6818 60.9251 11.0994C61.0871 11.5171 61.168 12.0313 61.168 12.6421V13.0682H56.1226V12.1989H60.1453C60.1453 11.8296 60.0714 11.5 59.9237 11.2102C59.7788 10.9205 59.5714 10.6918 59.3016 10.5242C59.0345 10.3565 58.7192 10.2727 58.3555 10.2727C57.955 10.2727 57.6084 10.3722 57.3158 10.571C57.026 10.7671 56.803 11.0227 56.6467 11.3381C56.4905 11.6534 56.4124 11.9915 56.4124 12.3523V12.9318C56.4124 13.4261 56.4976 13.8452 56.668 14.1889C56.8413 14.5298 57.0814 14.7898 57.3882 14.9688C57.695 15.1449 58.0516 15.233 58.4578 15.233C58.722 15.233 58.9606 15.196 59.1737 15.1222C59.3896 15.0455 59.5757 14.9318 59.732 14.7813C59.8882 14.6279 60.0089 14.4375 60.0942 14.2102L61.0658 14.483C60.9635 14.8125 60.7916 15.1023 60.5501 15.3523C60.3087 15.5994 60.0104 15.7926 59.6553 15.9318C59.3001 16.0682 58.901 16.1364 58.4578 16.1364Z" fill="black"/>
<path d="M62.8342 16V7.27274H63.8399V10.4943H63.9251C63.999 10.3807 64.1013 10.2358 64.232 10.0597C64.3655 9.88069 64.5558 9.7216 64.803 9.5824C65.053 9.44035 65.391 9.36933 65.8172 9.36933C66.3683 9.36933 66.8541 9.50711 67.2746 9.78268C67.695 10.0583 68.0231 10.4489 68.2589 10.9546C68.4947 11.4602 68.6126 12.0568 68.6126 12.7443C68.6126 13.4375 68.4947 14.0384 68.2589 14.5469C68.0231 15.0526 67.6964 15.4446 67.2788 15.723C66.8612 15.9986 66.3797 16.1364 65.8342 16.1364C65.4138 16.1364 65.0771 16.0668 64.8243 15.9276C64.5714 15.7855 64.3768 15.625 64.2405 15.446C64.1041 15.2642 63.999 15.1136 63.9251 14.9943H63.8058V16H62.8342ZM63.8229 12.7273C63.8229 13.2216 63.8953 13.6577 64.0402 14.0355C64.1851 14.4105 64.3967 14.7046 64.6751 14.9176C64.9535 15.1279 65.2945 15.233 65.6979 15.233C66.1183 15.233 66.4692 15.1222 66.7504 14.9006C67.0345 14.6761 67.2476 14.375 67.3896 13.9972C67.5345 13.6165 67.607 13.1932 67.607 12.7273C67.607 12.2671 67.5359 11.8523 67.3939 11.483C67.2547 11.1108 67.043 10.8168 66.7589 10.6009C66.4777 10.3821 66.124 10.2727 65.6979 10.2727C65.2888 10.2727 64.945 10.3764 64.6666 10.5838C64.3882 10.7884 64.178 11.0753 64.0359 11.4446C63.8939 11.8111 63.8229 12.2386 63.8229 12.7273Z" fill="black"/>
<circle cx="11" cy="12" r="3" fill="#FF54E4"/>
</svg>
