<svg width="66" height="24" viewBox="0 0 66 24" fill="none" xmlns="http://www.w3.org/2000/svg">
<path d="M11.9993 0.5H62C63.933 0.5 65.5 2.067 65.5 4V20C65.5 21.933 63.933 23.5 62 23.5H11.9993C10.9692 23.5 9.99131 23.0462 9.32629 22.2594L2.56439 14.2594C1.4618 12.9549 1.4618 11.0451 2.56439 9.74063L9.32629 1.74063C9.99131 0.953848 10.9692 0.5 11.9993 0.5Z" fill="#FFE2CD" stroke="black"/>
<path d="M18.4148 16H17.3069L20.5114 7.27273H21.6023L24.8069 16H23.6989L21.091 8.65341H21.0228L18.4148 16ZM18.8239 12.5909H23.2898V13.5284H18.8239V12.5909Z" fill="black"/>
<path d="M26.0299 16V9.45455H27.0015V10.4432H27.0697C27.189 10.1193 27.4049 9.85653 27.7174 9.65483C28.0299 9.45312 28.3822 9.35227 28.7742 9.35227C28.8481 9.35227 28.9404 9.35369 29.0512 9.35653C29.162 9.35937 29.2458 9.36364 29.3026 9.36932V10.392C29.2685 10.3835 29.1904 10.3707 29.0682 10.3537C28.9489 10.3338 28.8225 10.3239 28.689 10.3239C28.3708 10.3239 28.0867 10.3906 27.8367 10.5241C27.5896 10.6548 27.3935 10.8366 27.2486 11.0696C27.1066 11.2997 27.0356 11.5625 27.0356 11.858V16H26.0299Z" fill="black"/>
<path d="M32.7671 16.1364C32.2217 16.1364 31.7401 15.9986 31.3225 15.723C30.9049 15.4446 30.5782 15.0526 30.3424 14.5469C30.1066 14.0384 29.9887 13.4375 29.9887 12.7443C29.9887 12.0568 30.1066 11.4602 30.3424 10.9545C30.5782 10.4489 30.9063 10.0582 31.3268 9.78267C31.7472 9.5071 32.233 9.36932 32.7842 9.36932C33.2103 9.36932 33.5469 9.44034 33.7941 9.58239C34.0441 9.72159 34.2344 9.88068 34.3651 10.0597C34.4986 10.2358 34.6023 10.3807 34.6762 10.4943H34.7614V7.27273H35.7671V16H34.7955V14.9943H34.6762C34.6023 15.1136 34.4972 15.2642 34.3609 15.446C34.2245 15.625 34.0299 15.7855 33.7771 15.9276C33.5242 16.0668 33.1876 16.1364 32.7671 16.1364ZM32.9035 15.233C33.3069 15.233 33.6478 15.1278 33.9262 14.9176C34.2046 14.7045 34.4163 14.4105 34.5611 14.0355C34.706 13.6577 34.7785 13.2216 34.7785 12.7273C34.7785 12.2386 34.7075 11.8111 34.5654 11.4446C34.4234 11.0753 34.2131 10.7884 33.9347 10.5838C33.6563 10.3764 33.3126 10.2727 32.9035 10.2727C32.4773 10.2727 32.1222 10.3821 31.8381 10.6009C31.5569 10.8168 31.3452 11.1108 31.2032 11.483C31.064 11.8523 30.9944 12.267 30.9944 12.7273C30.9944 13.1932 31.0654 13.6165 31.2075 13.9972C31.3523 14.375 31.5654 14.6761 31.8467 14.9006C32.1307 15.1222 32.483 15.233 32.9035 15.233Z" fill="black"/>
<path d="M41.8736 13.3239V9.45455H42.8793V16H41.8736V14.892H41.8055C41.6521 15.2244 41.4134 15.5071 41.0896 15.7401C40.7657 15.9702 40.3566 16.0852 39.8623 16.0852C39.4532 16.0852 39.0896 15.9957 38.7714 15.8168C38.4532 15.6349 38.2032 15.3622 38.0214 14.9986C37.8396 14.6321 37.7486 14.1705 37.7486 13.6136V9.45455H38.7543V13.5455C38.7543 14.0227 38.8879 14.4034 39.1549 14.6875C39.4248 14.9716 39.7685 15.1136 40.1861 15.1136C40.4361 15.1136 40.6904 15.0497 40.9489 14.9219C41.2103 14.794 41.429 14.598 41.6052 14.3338C41.7842 14.0696 41.8736 13.733 41.8736 13.3239Z" fill="black"/>
<path d="M44.7213 16V9.45455H45.727V16H44.7213ZM45.2327 8.36364C45.0366 8.36364 44.8676 8.29688 44.7256 8.16335C44.5864 8.02983 44.5168 7.86932 44.5168 7.68182C44.5168 7.49432 44.5864 7.33381 44.7256 7.20028C44.8676 7.06676 45.0366 7 45.2327 7C45.4287 7 45.5963 7.06676 45.7355 7.20028C45.8776 7.33381 45.9486 7.49432 45.9486 7.68182C45.9486 7.86932 45.8776 8.02983 45.7355 8.16335C45.5963 8.29688 45.4287 8.36364 45.2327 8.36364Z" fill="black"/>
<path d="M48.5746 12.0625V16H47.569V9.45455H48.5406V10.4773H48.6258C48.7792 10.1449 49.0121 9.87784 49.3246 9.67614C49.6371 9.47159 50.0405 9.36932 50.5349 9.36932C50.978 9.36932 51.3658 9.46023 51.6982 9.64205C52.0306 9.82102 52.2891 10.0938 52.4738 10.4602C52.6584 10.8239 52.7508 11.2841 52.7508 11.8409V16H51.7451V11.9091C51.7451 11.3949 51.6116 10.9943 51.3445 10.7074C51.0775 10.4176 50.711 10.2727 50.2451 10.2727C49.9241 10.2727 49.6371 10.3423 49.3843 10.4815C49.1343 10.6207 48.9369 10.8239 48.792 11.0909C48.6471 11.358 48.5746 11.6818 48.5746 12.0625Z" fill="black"/>
<path d="M57.2476 16.1364C56.6567 16.1364 56.1382 15.9957 55.6922 15.7145C55.249 15.4332 54.9024 15.0398 54.6524 14.5341C54.4052 14.0284 54.2817 13.4375 54.2817 12.7614C54.2817 12.0795 54.4052 11.4844 54.6524 10.9759C54.9024 10.4673 55.249 10.0724 55.6922 9.79119C56.1382 9.50994 56.6567 9.36932 57.2476 9.36932C57.8385 9.36932 58.3555 9.50994 58.7987 9.79119C59.2447 10.0724 59.5913 10.4673 59.8385 10.9759C60.0885 11.4844 60.2135 12.0795 60.2135 12.7614C60.2135 13.4375 60.0885 14.0284 59.8385 14.5341C59.5913 15.0398 59.2447 15.4332 58.7987 15.7145C58.3555 15.9957 57.8385 16.1364 57.2476 16.1364ZM57.2476 15.233C57.6964 15.233 58.0658 15.1179 58.3555 14.8878C58.6453 14.6577 58.8598 14.3551 58.999 13.9801C59.1382 13.6051 59.2078 13.1989 59.2078 12.7614C59.2078 12.3239 59.1382 11.9162 58.999 11.5384C58.8598 11.1605 58.6453 10.8551 58.3555 10.6222C58.0658 10.3892 57.6964 10.2727 57.2476 10.2727C56.7987 10.2727 56.4294 10.3892 56.1396 10.6222C55.8499 10.8551 55.6354 11.1605 55.4962 11.5384C55.357 11.9162 55.2874 12.3239 55.2874 12.7614C55.2874 13.1989 55.357 13.6051 55.4962 13.9801C55.6354 14.3551 55.8499 14.6577 56.1396 14.8878C56.4294 15.1179 56.7987 15.233 57.2476 15.233Z" fill="black"/>
<circle cx="11" cy="12" r="3" fill="#F0734B"/>
</svg>
