<svg width="68" height="24" viewBox="0 0 68 24" fill="none" xmlns="http://www.w3.org/2000/svg">
<path d="M11.9994 0.5H64C65.933 0.5 67.5 2.067 67.5 4V20C67.5 21.933 65.933 23.5 64 23.5H11.9994C10.9692 23.5 9.99131 23.0462 9.32629 22.2594L2.56439 14.2594C1.4618 12.9549 1.4618 11.0451 2.56439 9.74063L9.32629 1.74063C9.99131 0.953848 10.9692 0.5 11.9994 0.5Z" fill="#CBD7FF" stroke="black"/>
<path d="M20.7501 16H18.0569V7.27273H20.8694C21.716 7.27273 22.4404 7.44744 23.0427 7.79688C23.645 8.14347 24.1066 8.64205 24.4276 9.29261C24.7486 9.94034 24.9092 10.7159 24.9092 11.6193C24.9092 12.5284 24.7472 13.3111 24.4234 13.9673C24.0995 14.6207 23.6279 15.1236 23.0086 15.4759C22.3893 15.8253 21.6364 16 20.7501 16ZM19.1137 15.0625H20.6819C21.4035 15.0625 22.0015 14.9233 22.4759 14.6449C22.9504 14.3665 23.304 13.9702 23.537 13.456C23.77 12.9418 23.8864 12.3295 23.8864 11.6193C23.8864 10.9148 23.7714 10.3082 23.5413 9.79972C23.3111 9.28835 22.9674 8.89631 22.51 8.62358C22.0526 8.34801 21.483 8.21023 20.8012 8.21023H19.1137V15.0625Z" fill="black"/>
<path d="M28.4717 16.1534C28.0569 16.1534 27.6805 16.0753 27.3424 15.919C27.0043 15.7599 26.7359 15.5313 26.537 15.233C26.3381 14.9318 26.2387 14.5682 26.2387 14.142C26.2387 13.767 26.3126 13.4631 26.4603 13.2301C26.608 12.9943 26.8055 12.8097 27.0526 12.6761C27.2998 12.5426 27.5725 12.4432 27.8708 12.3778C28.1719 12.3097 28.4745 12.2557 28.7785 12.2159C29.1762 12.1648 29.4986 12.1264 29.7458 12.1009C29.9958 12.0724 30.1776 12.0256 30.2913 11.9602C30.4077 11.8949 30.466 11.7812 30.466 11.6193V11.5852C30.466 11.1648 30.3509 10.8381 30.1208 10.6051C29.8935 10.3722 29.5484 10.2557 29.0853 10.2557C28.6052 10.2557 28.2288 10.3608 27.956 10.571C27.6833 10.7812 27.4915 11.0057 27.3807 11.2443L26.4262 10.9034C26.5967 10.5057 26.8239 10.196 27.108 9.97443C27.395 9.75 27.7075 9.59375 28.0455 9.50568C28.3864 9.41477 28.7217 9.36932 29.0512 9.36932C29.2614 9.36932 29.5029 9.39489 29.7756 9.44602C30.0512 9.49432 30.3168 9.59517 30.5725 9.74858C30.831 9.90199 31.0455 10.1335 31.216 10.4432C31.3864 10.7528 31.4717 11.1676 31.4717 11.6875V16H30.466V15.1136H30.4148C30.3467 15.2557 30.233 15.4077 30.0739 15.5696C29.9148 15.7315 29.7032 15.8693 29.439 15.983C29.1748 16.0966 28.8523 16.1534 28.4717 16.1534ZM28.6251 15.25C29.0228 15.25 29.358 15.1719 29.6307 15.0156C29.9063 14.8594 30.1137 14.6577 30.2529 14.4105C30.395 14.1634 30.466 13.9034 30.466 13.6307V12.7102C30.4234 12.7614 30.3296 12.8082 30.1847 12.8509C30.0427 12.8906 29.8779 12.9261 29.6904 12.9574C29.5057 12.9858 29.3254 13.0114 29.1492 13.0341C28.9759 13.054 28.8353 13.071 28.7273 13.0852C28.466 13.1193 28.2217 13.1747 27.9944 13.2514C27.77 13.3253 27.5881 13.4375 27.4489 13.5881C27.3126 13.7358 27.2444 13.9375 27.2444 14.1932C27.2444 14.5426 27.3736 14.8068 27.6322 14.9858C27.8935 15.1619 28.2245 15.25 28.6251 15.25Z" fill="black"/>
<path d="M36.1538 9.45455V10.3068H32.7618V9.45455H36.1538ZM33.7504 7.88636H34.7561V14.125C34.7561 14.4091 34.7973 14.6222 34.8797 14.7642C34.9649 14.9034 35.0729 14.9972 35.2035 15.0455C35.3371 15.0909 35.4777 15.1136 35.6254 15.1136C35.7362 15.1136 35.8271 15.108 35.8981 15.0966C35.9692 15.0824 36.026 15.071 36.0686 15.0625L36.2731 15.9659C36.205 15.9915 36.1098 16.017 35.9876 16.0426C35.8655 16.071 35.7106 16.0852 35.5231 16.0852C35.2391 16.0852 34.9606 16.0241 34.6879 15.902C34.418 15.7798 34.1936 15.5938 34.0146 15.3438C33.8385 15.0938 33.7504 14.7784 33.7504 14.3977V7.88636Z" fill="black"/>
<path d="M39.5928 16.1534C39.178 16.1534 38.8016 16.0753 38.4635 15.919C38.1254 15.7599 37.857 15.5313 37.6581 15.233C37.4592 14.9318 37.3598 14.5682 37.3598 14.142C37.3598 13.767 37.4337 13.4631 37.5814 13.2301C37.7291 12.9943 37.9266 12.8097 38.1737 12.6761C38.4209 12.5426 38.6936 12.4432 38.9919 12.3778C39.293 12.3097 39.5956 12.2557 39.8996 12.2159C40.2973 12.1648 40.6197 12.1264 40.8669 12.1009C41.1169 12.0724 41.2987 12.0256 41.4124 11.9602C41.5288 11.8949 41.5871 11.7812 41.5871 11.6193V11.5852C41.5871 11.1648 41.472 10.8381 41.2419 10.6051C41.0146 10.3722 40.6695 10.2557 40.2064 10.2557C39.7263 10.2557 39.3499 10.3608 39.0771 10.571C38.8044 10.7812 38.6126 11.0057 38.5018 11.2443L37.5473 10.9034C37.7178 10.5057 37.945 10.196 38.2291 9.97443C38.516 9.75 38.8285 9.59375 39.1666 9.50568C39.5075 9.41477 39.8428 9.36932 40.1723 9.36932C40.3825 9.36932 40.624 9.39489 40.8967 9.44602C41.1723 9.49432 41.4379 9.59517 41.6936 9.74858C41.9521 9.90199 42.1666 10.1335 42.3371 10.4432C42.5075 10.7528 42.5928 11.1676 42.5928 11.6875V16H41.5871V15.1136H41.5359C41.4678 15.2557 41.3541 15.4077 41.195 15.5696C41.0359 15.7315 40.8243 15.8693 40.5601 15.983C40.2959 16.0966 39.9734 16.1534 39.5928 16.1534ZM39.7462 15.25C40.1439 15.25 40.4791 15.1719 40.7518 15.0156C41.0274 14.8594 41.2348 14.6577 41.374 14.4105C41.516 14.1634 41.5871 13.9034 41.5871 13.6307V12.7102C41.5445 12.7614 41.4507 12.8082 41.3058 12.8509C41.1638 12.8906 40.999 12.9261 40.8115 12.9574C40.6268 12.9858 40.4464 13.0114 40.2703 13.0341C40.097 13.054 39.9564 13.071 39.8484 13.0852C39.5871 13.1193 39.3428 13.1747 39.1155 13.2514C38.891 13.3253 38.7092 13.4375 38.57 13.5881C38.4337 13.7358 38.3655 13.9375 38.3655 14.1932C38.3655 14.5426 38.4947 14.8068 38.7533 14.9858C39.0146 15.1619 39.3456 15.25 39.7462 15.25Z" fill="black"/>
<path d="M44.3133 7.27273L46.9042 14.6193H47.0065L49.5974 7.27273H50.7053L47.5008 16H46.4099L43.2053 7.27273H44.3133Z" fill="black"/>
<path d="M51.9283 16V9.45455H52.934V16H51.9283ZM52.4397 8.36364C52.2437 8.36364 52.0746 8.29688 51.9326 8.16335C51.7934 8.02983 51.7238 7.86932 51.7238 7.68182C51.7238 7.49432 51.7934 7.33381 51.9326 7.20028C52.0746 7.06676 52.2437 7 52.4397 7C52.6357 7 52.8033 7.06676 52.9425 7.20028C53.0846 7.33381 53.1556 7.49432 53.1556 7.68182C53.1556 7.86932 53.0846 8.02983 52.9425 8.16335C52.8033 8.29688 52.6357 8.36364 52.4397 8.36364Z" fill="black"/>
<path d="M54.5885 16V15.233L58.3044 10.4602V10.392H54.7078V9.45455H59.5999V10.2557L55.9862 14.9943V15.0625H59.7192V16H54.5885Z" fill="black"/>
<circle cx="11" cy="12" r="3" fill="#547AFF"/>
</svg>
