<svg width="66" height="24" viewBox="0 0 66 24" fill="none" xmlns="http://www.w3.org/2000/svg">
<path d="M11.9994 0.5H61.5C63.433 0.5 65 2.067 65 4V20C65 21.933 63.433 23.5 61.5 23.5H11.9994C10.9692 23.5 9.99131 23.0462 9.32629 22.2594L2.56439 14.2594C1.4618 12.9549 1.4618 11.0451 2.56439 9.74063L9.32629 1.74063C9.99131 0.953848 10.9692 0.5 11.9994 0.5Z" fill="#DFFFD7" stroke="black"/>
<path d="M22.8296 9.45455C22.7785 9.02273 22.5711 8.6875 22.2075 8.44886C21.8438 8.21023 21.3978 8.09091 20.8694 8.09091C20.483 8.09091 20.145 8.15341 19.8552 8.27841C19.5682 8.40341 19.3438 8.57528 19.1819 8.79403C19.0228 9.01278 18.9432 9.26136 18.9432 9.53977C18.9432 9.77273 18.9986 9.97301 19.1094 10.1406C19.2231 10.3054 19.368 10.4432 19.5441 10.554C19.7202 10.6619 19.9049 10.7514 20.0981 10.8224C20.2913 10.8906 20.4688 10.946 20.6307 10.9886L21.5171 11.2273C21.7444 11.2869 21.9972 11.3693 22.2756 11.4744C22.5569 11.5795 22.8254 11.723 23.081 11.9048C23.3396 12.0838 23.5526 12.3139 23.7202 12.5952C23.8879 12.8764 23.9717 13.2216 23.9717 13.6307C23.9717 14.1023 23.8481 14.5284 23.6009 14.9091C23.3566 15.2898 22.9986 15.5923 22.5271 15.8168C22.0583 16.0412 21.4887 16.1534 20.8182 16.1534C20.1932 16.1534 19.6521 16.0526 19.1947 15.8509C18.7401 15.6491 18.3822 15.3679 18.1208 15.0071C17.8623 14.6463 17.716 14.2273 17.6819 13.75H18.7728C18.8012 14.0795 18.912 14.3523 19.1052 14.5682C19.3012 14.7813 19.5484 14.9403 19.8467 15.0455C20.1478 15.1477 20.4717 15.1989 20.8182 15.1989C21.2217 15.1989 21.5839 15.1335 21.9049 15.0028C22.2259 14.8693 22.4802 14.6847 22.6677 14.4489C22.8552 14.2102 22.9489 13.9318 22.9489 13.6136C22.9489 13.3239 22.868 13.0881 22.706 12.9062C22.5441 12.7244 22.331 12.5767 22.0668 12.4631C21.8026 12.3494 21.5171 12.25 21.2103 12.1648L20.1364 11.858C19.4546 11.6619 18.9148 11.3821 18.5171 11.0185C18.1194 10.6548 17.9205 10.179 17.9205 9.59091C17.9205 9.10227 18.0526 8.67614 18.3168 8.3125C18.5839 7.94602 18.9418 7.66193 19.3907 7.46023C19.8424 7.25568 20.3467 7.15341 20.9035 7.15341C21.466 7.15341 21.966 7.25426 22.4035 7.45597C22.841 7.65483 23.1876 7.92756 23.4432 8.27415C23.7018 8.62074 23.8381 9.0142 23.8523 9.45455H22.8296Z" fill="black"/>
<path d="M28.3172 16.1364C27.6865 16.1364 27.1425 15.9972 26.6851 15.7188C26.2305 15.4375 25.8797 15.0455 25.6325 14.5426C25.3882 14.0369 25.266 13.4489 25.266 12.7784C25.266 12.108 25.3882 11.517 25.6325 11.0057C25.8797 10.4915 26.2234 10.0909 26.6638 9.80398C27.107 9.5142 27.624 9.36932 28.2149 9.36932C28.5558 9.36932 28.8925 9.42614 29.2249 9.53977C29.5572 9.65341 29.8598 9.83807 30.1325 10.0938C30.4053 10.3466 30.6226 10.6818 30.7845 11.0994C30.9464 11.517 31.0274 12.0312 31.0274 12.642V13.0682H25.982V12.1989H30.0047C30.0047 11.8295 29.9308 11.5 29.7831 11.2102C29.6382 10.9205 29.4308 10.6918 29.1609 10.5241C28.8939 10.3565 28.5785 10.2727 28.2149 10.2727C27.8143 10.2727 27.4678 10.3722 27.1751 10.571C26.8854 10.767 26.6624 11.0227 26.5061 11.3381C26.3499 11.6534 26.2717 11.9915 26.2717 12.3523V12.9318C26.2717 13.4261 26.357 13.8452 26.5274 14.1889C26.7007 14.5298 26.9408 14.7898 27.2476 14.9688C27.5544 15.1449 27.9109 15.233 28.3172 15.233C28.5814 15.233 28.82 15.196 29.0331 15.1222C29.249 15.0455 29.4351 14.9318 29.5913 14.7812C29.7476 14.6278 29.8683 14.4375 29.9535 14.2102L30.9251 14.483C30.8229 14.8125 30.651 15.1023 30.4095 15.3523C30.168 15.5994 29.8697 15.7926 29.5146 15.9318C29.1595 16.0682 28.7604 16.1364 28.3172 16.1364Z" fill="black"/>
<path d="M32.5572 16V9.45455H33.5288V10.4432H33.597C33.7163 10.1193 33.9322 9.85653 34.2447 9.65483C34.5572 9.45312 34.9095 9.35227 35.3016 9.35227C35.3754 9.35227 35.4678 9.35369 35.5785 9.35653C35.6893 9.35937 35.7731 9.36364 35.83 9.36932V10.392C35.7959 10.3835 35.7178 10.3707 35.5956 10.3537C35.4763 10.3338 35.3499 10.3239 35.2163 10.3239C34.8981 10.3239 34.6141 10.3906 34.3641 10.5241C34.1169 10.6548 33.9209 10.8366 33.776 11.0696C33.6339 11.2997 33.5629 11.5625 33.5629 11.858V16H32.5572Z" fill="black"/>
<path d="M42.5736 9.45455L40.1531 16H39.1304L36.7099 9.45455H37.8008L39.6077 14.6705H39.6758L41.4827 9.45455H42.5736Z" fill="black"/>
<path d="M43.901 16V9.45455H44.9067V16H43.901ZM44.4124 8.36364C44.2163 8.36364 44.0473 8.29688 43.9053 8.16335C43.766 8.02983 43.6964 7.86932 43.6964 7.68182C43.6964 7.49432 43.766 7.33381 43.9053 7.20028C44.0473 7.06676 44.2163 7 44.4124 7C44.6084 7 44.776 7.06676 44.9152 7.20028C45.0572 7.33381 45.1283 7.49432 45.1283 7.68182C45.1283 7.86932 45.0572 8.02983 44.9152 8.16335C44.776 8.29688 44.6084 8.36364 44.4124 8.36364Z" fill="black"/>
<path d="M49.4077 16.1364C48.7941 16.1364 48.2657 15.9915 47.8225 15.7017C47.3793 15.4119 47.0384 15.0128 46.7998 14.5043C46.5611 13.9957 46.4418 13.4148 46.4418 12.7614C46.4418 12.0966 46.564 11.5099 46.8083 11.0014C47.0555 10.4901 47.3992 10.0909 47.8396 9.80398C48.2827 9.5142 48.7998 9.36932 49.3907 9.36932C49.8509 9.36932 50.2657 9.45455 50.635 9.625C51.0043 9.79545 51.3069 10.0341 51.5427 10.3409C51.7785 10.6477 51.9248 11.0057 51.9816 11.4148H50.9759C50.8992 11.1165 50.7288 10.8523 50.4646 10.6222C50.2032 10.3892 49.8509 10.2727 49.4077 10.2727C49.0157 10.2727 48.6719 10.375 48.3765 10.5795C48.0839 10.7812 47.8552 11.0668 47.6904 11.4361C47.5285 11.8026 47.4475 12.233 47.4475 12.7273C47.4475 13.233 47.5271 13.6733 47.6861 14.0483C47.8481 14.4233 48.0754 14.7145 48.368 14.9219C48.6634 15.1293 49.01 15.233 49.4077 15.233C49.6691 15.233 49.9063 15.1875 50.1194 15.0966C50.3325 15.0057 50.5129 14.875 50.6606 14.7045C50.8083 14.5341 50.9134 14.3295 50.9759 14.0909H51.9816C51.9248 14.4773 51.7842 14.8253 51.5597 15.1349C51.3381 15.4418 51.0441 15.6861 50.6776 15.8679C50.314 16.0469 49.8907 16.1364 49.4077 16.1364Z" fill="black"/>
<path d="M56.1961 16.1364C55.5654 16.1364 55.0214 15.9972 54.564 15.7188C54.1094 15.4375 53.7586 15.0455 53.5114 14.5426C53.2671 14.0369 53.145 13.4489 53.145 12.7784C53.145 12.108 53.2671 11.517 53.5114 11.0057C53.7586 10.4915 54.1023 10.0909 54.5427 9.80398C54.9859 9.5142 55.5029 9.36932 56.0938 9.36932C56.4347 9.36932 56.7714 9.42614 57.1038 9.53977C57.4361 9.65341 57.7387 9.83807 58.0114 10.0938C58.2842 10.3466 58.5015 10.6818 58.6634 11.0994C58.8253 11.517 58.9063 12.0312 58.9063 12.642V13.0682H53.8609V12.1989H57.8836C57.8836 11.8295 57.8097 11.5 57.662 11.2102C57.5171 10.9205 57.3097 10.6918 57.0398 10.5241C56.7728 10.3565 56.4575 10.2727 56.0938 10.2727C55.6932 10.2727 55.3467 10.3722 55.054 10.571C54.7643 10.767 54.5413 11.0227 54.385 11.3381C54.2288 11.6534 54.1506 11.9915 54.1506 12.3523V12.9318C54.1506 13.4261 54.2359 13.8452 54.4063 14.1889C54.5796 14.5298 54.8197 14.7898 55.1265 14.9688C55.4333 15.1449 55.7898 15.233 56.1961 15.233C56.4603 15.233 56.6989 15.196 56.912 15.1222C57.1279 15.0455 57.314 14.9318 57.4702 14.7812C57.6265 14.6278 57.7472 14.4375 57.8325 14.2102L58.804 14.483C58.7018 14.8125 58.5299 15.1023 58.2884 15.3523C58.0469 15.5994 57.7486 15.7926 57.3935 15.9318C57.0384 16.0682 56.6393 16.1364 56.1961 16.1364Z" fill="black"/>
<circle cx="11" cy="12" r="3" fill="#7ADA62"/>
</svg>
